<svg>
  <symbol id="arrow-up-left" xmlns="http://www.w3.org/2000/svg" fill="none" viewBox="0 0 24 24" stroke-width="1.5" stroke="currentColor" >
    <path stroke-linecap="round" stroke-linejoin="round" d="M19.5 19.5l-15-15m0 0v11.25m0-11.25h11.25" />
  </symbol>

<symbol id='message' xmlns="http://www.w3.org/2000/svg" fill="none" viewBox="0 0 24 24" stroke-width="1.5" stroke="currentColor">
  <path stroke-linecap="round" stroke-linejoin="round" d="M8.625 12a.375.375 0 11-.75 0 .375.375 0 01.75 0zm0 0H8.25m4.125 0a.375.375 0 11-.75 0 .375.375 0 01.75 0zm0 0H12m4.125 0a.375.375 0 11-.75 0 .375.375 0 01.75 0zm0 0h-.375M21 12c0 4.556-4.03 8.25-9 8.25a9.764 9.764 0 01-2.555-.337A5.972 5.972 0 015.41 20.97a5.969 5.969 0 01-.474-.065 4.48 4.48 0 00.978-2.025c.09-.457-.133-.901-.467-1.226C3.93 16.178 3 14.189 3 12c0-4.556 4.03-8.25 9-8.25s9 3.694 9 8.25z" />
</symbol>

<symbol id='mobile' xmlns="http://www.w3.org/2000/svg" fill="none" viewBox="0 0 24 24" stroke-width="1.5" stroke="currentColor">
  <path stroke-linecap="round" stroke-linejoin="round" d="M10.5 1.5H8.25A2.25 2.25 0 006 3.75v16.5a2.25 2.25 0 002.25 2.25h7.5A2.25 2.25 0 0018 20.25V3.75a2.25 2.25 0 00-2.25-2.25H13.5m-3 0V3h3V1.5m-3 0h3m-3 18.75h3" />
</symbol>


</svg>